<svg xmlns="http://www.w3.org/2000/svg" xmlns:xlink="http://www.w3.org/1999/xlink" width="1600" zoomAndPan="magnify" viewBox="0 0 1200 274.499992" height="366" preserveAspectRatio="xMidYMid meet" version="1.0"><defs><g/></defs><g fill="#000000" fill-opacity="1"><g transform="translate(12.2807, 196.89135)"><g><path d="M 61.1875 -98.859375 C 59.039062 -98.859375 57.050781 -99.394531 55.21875 -100.46875 C 53.394531 -101.539062 51.945312 -102.988281 50.875 -104.8125 C 49.800781 -106.644531 49.265625 -108.632812 49.265625 -110.78125 C 49.265625 -112.925781 49.800781 -114.910156 50.875 -116.734375 C 51.945312 -118.554688 53.394531 -120.003906 55.21875 -121.078125 C 57.050781 -122.148438 59.039062 -122.6875 61.1875 -122.6875 C 63.332031 -122.6875 65.316406 -122.148438 67.140625 -121.078125 C 68.960938 -120.003906 70.410156 -118.554688 71.484375 -116.734375 C 72.554688 -114.910156 73.09375 -112.925781 73.09375 -110.78125 C 73.09375 -108.632812 72.554688 -106.644531 71.484375 -104.8125 C 70.410156 -102.988281 68.960938 -101.539062 67.140625 -100.46875 C 65.316406 -99.394531 63.332031 -98.859375 61.1875 -98.859375 Z M 71.484375 -7.5625 C 71.484375 2.570312 69.976562 10.804688 66.96875 17.140625 C 63.96875 23.472656 59.3125 28.273438 53 31.546875 C 46.695312 34.828125 38.421875 36.867188 28.171875 37.671875 L 14.484375 38.640625 L 13.6875 23.5 L 29.78125 22.0625 C 38.425781 21.25 44.691406 18.722656 48.578125 14.484375 C 52.472656 10.242188 54.421875 3.753906 54.421875 -4.984375 L 54.421875 -71.171875 L 21.25 -71.171875 L 21.25 -85.328125 L 71.484375 -85.328125 Z M 71.484375 -7.5625 "/></g></g></g><g fill="#000000" fill-opacity="1"><g transform="translate(108.880555, 196.89135)"><g><path d="M 93.21875 -13.6875 L 93.21875 0 L 65.859375 0.8125 L 65.046875 -18.03125 L 63.359375 -18.03125 C 62.765625 -11.59375 60.039062 -6.707031 55.1875 -3.375 C 50.332031 -0.0507812 43.851562 1.609375 35.75 1.609375 C 26.832031 1.609375 19.929688 -0.519531 15.046875 -4.78125 C 10.171875 -9.050781 7.734375 -15.132812 7.734375 -23.03125 C 7.734375 -32.039062 11.019531 -38.960938 17.59375 -43.796875 C 24.164062 -48.628906 33.488281 -51.046875 45.5625 -51.046875 C 52.113281 -51.046875 57.75 -50.375 62.46875 -49.03125 L 62.46875 -53.609375 C 62.46875 -59.410156 60.492188 -63.734375 56.546875 -66.578125 C 52.609375 -69.421875 46.640625 -71.054688 38.640625 -71.484375 L 18.1875 -72.453125 L 19.796875 -86.953125 L 37.03125 -86.296875 C 51.09375 -85.765625 61.554688 -82.570312 68.421875 -76.71875 C 75.296875 -70.875 78.734375 -62.316406 78.734375 -51.046875 L 78.734375 -15.453125 Z M 38.484375 -12.078125 C 43.523438 -12.078125 47.859375 -12.960938 51.484375 -14.734375 C 55.109375 -16.503906 57.84375 -18.8125 59.6875 -21.65625 C 61.539062 -24.5 62.46875 -27.476562 62.46875 -30.59375 L 62.46875 -35.75 C 59.789062 -36.445312 57.125 -36.890625 54.46875 -37.078125 C 51.8125 -37.265625 48.46875 -37.359375 44.4375 -37.359375 C 37.675781 -37.359375 32.550781 -36.285156 29.0625 -34.140625 C 25.570312 -31.992188 23.828125 -28.828125 23.828125 -24.640625 C 23.828125 -20.503906 25.0625 -17.375 27.53125 -15.25 C 30 -13.132812 33.648438 -12.078125 38.484375 -12.078125 Z M 38.484375 -12.078125 "/></g></g></g><g fill="#000000" fill-opacity="1"><g transform="translate(205.48041, 196.89135)"><g><path d="M 41.703125 1.609375 C 35.148438 1.609375 29.578125 1.421875 24.984375 1.046875 C 20.398438 0.671875 16.257812 0.0507812 12.5625 -0.8125 L 14.484375 -16.265625 C 25.441406 -14.546875 34.515625 -13.6875 41.703125 -13.6875 C 50.285156 -13.6875 56.535156 -14.53125 60.453125 -16.21875 C 64.378906 -17.90625 66.34375 -20.601562 66.34375 -24.3125 C 66.34375 -26.78125 65.679688 -28.65625 64.359375 -29.9375 C 63.046875 -31.226562 60.914062 -32.25 57.96875 -33 L 38.328125 -38 C 32.847656 -39.394531 28.46875 -41.003906 25.1875 -42.828125 C 21.914062 -44.648438 19.472656 -46.96875 17.859375 -49.78125 C 16.253906 -52.601562 15.453125 -56.132812 15.453125 -60.375 C 15.453125 -66.65625 16.96875 -71.738281 20 -75.625 C 23.03125 -79.519531 27.753906 -82.378906 34.171875 -84.203125 C 40.585938 -86.035156 48.945312 -86.953125 59.25 -86.953125 C 67.082031 -86.953125 74.597656 -86.410156 81.796875 -85.328125 L 80.015625 -70.515625 C 71.910156 -71.273438 64.828125 -71.65625 58.765625 -71.65625 C 49.753906 -71.65625 43.234375 -70.832031 39.203125 -69.1875 C 35.179688 -67.550781 33.171875 -64.882812 33.171875 -61.1875 C 33.171875 -58.820312 33.867188 -57.046875 35.265625 -55.859375 C 36.660156 -54.679688 39.019531 -53.664062 42.34375 -52.8125 L 58.125 -48.953125 C 64.238281 -47.441406 69.175781 -45.664062 72.9375 -43.625 C 76.695312 -41.59375 79.488281 -39.046875 81.3125 -35.984375 C 83.132812 -32.921875 84.046875 -29.140625 84.046875 -24.640625 C 84.046875 -18.460938 82.566406 -13.453125 79.609375 -9.609375 C 76.660156 -5.773438 72.085938 -2.945312 65.890625 -1.125 C 59.691406 0.695312 51.628906 1.609375 41.703125 1.609375 Z M 41.703125 1.609375 "/></g></g></g><g fill="#000000" fill-opacity="1"><g transform="translate(302.080265, 196.89135)"><g><path d="M 85.65625 -46.046875 C 85.65625 -42.128906 85.492188 -38.476562 85.171875 -35.09375 L 27.53125 -35.09375 C 29.03125 -28.007812 32.410156 -22.613281 37.671875 -18.90625 C 42.929688 -15.207031 49.859375 -13.359375 58.453125 -13.359375 C 65.046875 -13.359375 72.019531 -14.113281 79.375 -15.625 L 81.46875 -0.640625 C 73.582031 0.859375 65.265625 1.609375 56.515625 1.609375 C 46.796875 1.609375 38.539062 -0.101562 31.75 -3.53125 C 24.96875 -6.96875 19.804688 -12 16.265625 -18.625 C 12.722656 -25.257812 10.953125 -33.328125 10.953125 -42.828125 C 10.953125 -52.054688 12.453125 -59.972656 15.453125 -66.578125 C 18.460938 -73.179688 22.851562 -78.226562 28.625 -81.71875 C 34.394531 -85.207031 41.332031 -86.953125 49.4375 -86.953125 C 61.019531 -86.953125 69.953125 -83.4375 76.234375 -76.40625 C 82.515625 -69.375 85.65625 -59.253906 85.65625 -46.046875 Z M 70.203125 -48.140625 C 70.203125 -55.765625 68.390625 -61.640625 64.765625 -65.765625 C 61.140625 -69.898438 56.082031 -71.96875 49.59375 -71.96875 C 42.988281 -71.96875 37.726562 -69.898438 33.8125 -65.765625 C 29.894531 -61.640625 27.585938 -55.765625 26.890625 -48.140625 Z M 70.203125 -48.140625 "/></g></g></g><g fill="#000000" fill-opacity="1"><g transform="translate(398.68012, 196.89135)"><g/></g></g><g fill="#000000" fill-opacity="1"><g transform="translate(495.279976, 196.89135)"><g><path d="M 53.140625 -86.953125 C 60.648438 -86.953125 67.085938 -85.242188 72.453125 -81.828125 C 77.816406 -78.421875 81.894531 -73.46875 84.6875 -66.96875 C 87.476562 -60.476562 88.875 -52.644531 88.875 -43.46875 C 88.875 -33.96875 87.035156 -25.847656 83.359375 -19.109375 C 79.679688 -12.378906 74.34375 -7.242188 67.34375 -3.703125 C 60.34375 -0.160156 51.90625 1.609375 42.03125 1.609375 C 33.757812 1.609375 24.257812 1.070312 13.53125 0 L 13.53125 -120.765625 L 30.59375 -120.765625 L 30.59375 -69.875 L 32.203125 -69.875 C 33.003906 -81.257812 39.984375 -86.953125 53.140625 -86.953125 Z M 45.40625 -12.875 C 53.882812 -12.875 60.429688 -15.546875 65.046875 -20.890625 C 69.660156 -26.234375 71.96875 -33.757812 71.96875 -43.46875 C 71.96875 -52.757812 70.265625 -59.910156 66.859375 -64.921875 C 63.453125 -69.941406 58.609375 -72.453125 52.328125 -72.453125 C 37.835938 -72.453125 30.59375 -64.296875 30.59375 -47.984375 L 30.59375 -13.359375 C 33.8125 -13.035156 38.75 -12.875 45.40625 -12.875 Z M 45.40625 -12.875 "/></g></g></g><g fill="#000000" fill-opacity="1"><g transform="translate(591.879831, 196.89135)"><g><path d="M 85.65625 -1.765625 C 81.363281 -0.585938 77.203125 0.265625 73.171875 0.796875 C 69.148438 1.335938 64.832031 1.609375 60.21875 1.609375 C 53.5625 1.609375 48.191406 0.429688 44.109375 -1.921875 C 40.035156 -4.285156 37.03125 -7.9375 35.09375 -12.875 C 33.164062 -17.8125 32.203125 -24.253906 32.203125 -32.203125 L 32.203125 -106.59375 L 7.078125 -106.59375 L 7.078125 -120.765625 L 49.265625 -120.765625 L 49.265625 -33 C 49.265625 -28.175781 49.707031 -24.40625 50.59375 -21.6875 C 51.476562 -18.976562 53.164062 -16.96875 55.65625 -15.65625 C 58.15625 -14.34375 61.820312 -13.6875 66.65625 -13.6875 C 69.019531 -13.6875 71.554688 -13.925781 74.265625 -14.40625 C 76.972656 -14.894531 80.125 -15.675781 83.71875 -16.75 Z M 85.65625 -1.765625 "/></g></g></g><g fill="#000000" fill-opacity="1"><g transform="translate(688.479686, 196.89135)"><g><path d="M 85.65625 -46.046875 C 85.65625 -42.128906 85.492188 -38.476562 85.171875 -35.09375 L 27.53125 -35.09375 C 29.03125 -28.007812 32.410156 -22.613281 37.671875 -18.90625 C 42.929688 -15.207031 49.859375 -13.359375 58.453125 -13.359375 C 65.046875 -13.359375 72.019531 -14.113281 79.375 -15.625 L 81.46875 -0.640625 C 73.582031 0.859375 65.265625 1.609375 56.515625 1.609375 C 46.796875 1.609375 38.539062 -0.101562 31.75 -3.53125 C 24.96875 -6.96875 19.804688 -12 16.265625 -18.625 C 12.722656 -25.257812 10.953125 -33.328125 10.953125 -42.828125 C 10.953125 -52.054688 12.453125 -59.972656 15.453125 -66.578125 C 18.460938 -73.179688 22.851562 -78.226562 28.625 -81.71875 C 34.394531 -85.207031 41.332031 -86.953125 49.4375 -86.953125 C 61.019531 -86.953125 69.953125 -83.4375 76.234375 -76.40625 C 82.515625 -69.375 85.65625 -59.253906 85.65625 -46.046875 Z M 70.203125 -48.140625 C 70.203125 -55.765625 68.390625 -61.640625 64.765625 -65.765625 C 61.140625 -69.898438 56.082031 -71.96875 49.59375 -71.96875 C 42.988281 -71.96875 37.726562 -69.898438 33.8125 -65.765625 C 29.894531 -61.640625 27.585938 -55.765625 26.890625 -48.140625 Z M 70.203125 -48.140625 "/></g></g></g><g fill="#000000" fill-opacity="1"><g transform="translate(785.079541, 196.89135)"><g><path d="M 54.75 -86.953125 C 63.757812 -86.953125 70.734375 -84.210938 75.671875 -78.734375 C 80.609375 -73.253906 83.078125 -65.523438 83.078125 -55.546875 L 83.078125 0 L 66.015625 0 L 66.015625 -55.546875 C 66.015625 -60.910156 64.671875 -65.066406 61.984375 -68.015625 C 59.304688 -70.972656 55.550781 -72.453125 50.71875 -72.453125 C 37.300781 -72.453125 30.59375 -64.296875 30.59375 -47.984375 L 30.59375 0 L 13.53125 0 L 13.53125 -85.328125 L 28.984375 -85.328125 L 30.34375 -69.875 L 32.203125 -69.875 C 32.679688 -75.625 34.769531 -79.90625 38.46875 -82.71875 C 42.175781 -85.539062 47.601562 -86.953125 54.75 -86.953125 Z M 54.75 -86.953125 "/></g></g></g><g fill="#000000" fill-opacity="1"><g transform="translate(881.679396, 196.89135)"><g><path d="M 54.75 -86.953125 C 63.757812 -86.953125 70.734375 -84.210938 75.671875 -78.734375 C 80.609375 -73.253906 83.078125 -65.523438 83.078125 -55.546875 L 83.078125 0 L 66.015625 0 L 66.015625 -55.546875 C 66.015625 -60.910156 64.671875 -65.066406 61.984375 -68.015625 C 59.304688 -70.972656 55.550781 -72.453125 50.71875 -72.453125 C 37.300781 -72.453125 30.59375 -64.296875 30.59375 -47.984375 L 30.59375 0 L 13.53125 0 L 13.53125 -85.328125 L 28.984375 -85.328125 L 30.34375 -69.875 L 32.203125 -69.875 C 32.679688 -75.625 34.769531 -79.90625 38.46875 -82.71875 C 42.175781 -85.539062 47.601562 -86.953125 54.75 -86.953125 Z M 54.75 -86.953125 "/></g></g></g><g fill="#000000" fill-opacity="1"><g transform="translate(978.279251, 196.89135)"><g><path d="M 85.65625 -46.046875 C 85.65625 -42.128906 85.492188 -38.476562 85.171875 -35.09375 L 27.53125 -35.09375 C 29.03125 -28.007812 32.410156 -22.613281 37.671875 -18.90625 C 42.929688 -15.207031 49.859375 -13.359375 58.453125 -13.359375 C 65.046875 -13.359375 72.019531 -14.113281 79.375 -15.625 L 81.46875 -0.640625 C 73.582031 0.859375 65.265625 1.609375 56.515625 1.609375 C 46.796875 1.609375 38.539062 -0.101562 31.75 -3.53125 C 24.96875 -6.96875 19.804688 -12 16.265625 -18.625 C 12.722656 -25.257812 10.953125 -33.328125 10.953125 -42.828125 C 10.953125 -52.054688 12.453125 -59.972656 15.453125 -66.578125 C 18.460938 -73.179688 22.851562 -78.226562 28.625 -81.71875 C 34.394531 -85.207031 41.332031 -86.953125 49.4375 -86.953125 C 61.019531 -86.953125 69.953125 -83.4375 76.234375 -76.40625 C 82.515625 -69.375 85.65625 -59.253906 85.65625 -46.046875 Z M 70.203125 -48.140625 C 70.203125 -55.765625 68.390625 -61.640625 64.765625 -65.765625 C 61.140625 -69.898438 56.082031 -71.96875 49.59375 -71.96875 C 42.988281 -71.96875 37.726562 -69.898438 33.8125 -65.765625 C 29.894531 -61.640625 27.585938 -55.765625 26.890625 -48.140625 Z M 70.203125 -48.140625 "/></g></g></g><g fill="#000000" fill-opacity="1"><g transform="translate(1074.879106, 196.89135)"><g><path d="M 67.625 -86.953125 C 73.53125 -86.953125 78.320312 -85.835938 82 -83.609375 C 85.675781 -81.378906 88.382812 -77.925781 90.125 -73.25 C 91.875 -68.582031 92.75 -62.46875 92.75 -54.90625 L 75.84375 -54.90625 C 75.84375 -61.070312 74.914062 -65.535156 73.0625 -68.296875 C 71.207031 -71.066406 68.210938 -72.453125 64.078125 -72.453125 C 56.941406 -72.453125 51.5625 -69.390625 47.9375 -63.265625 C 44.3125 -57.148438 42.5 -48.296875 42.5 -36.703125 L 42.5 -14.171875 L 63.4375 -14.171875 L 63.4375 0 L 6.4375 0 L 6.4375 -14.171875 L 25.4375 -14.171875 L 25.4375 -71.171875 L 9.65625 -71.171875 L 9.65625 -85.328125 L 39.28125 -85.328125 L 42.1875 -63.4375 L 44.109375 -63.4375 C 44.597656 -71.320312 46.785156 -77.210938 50.671875 -81.109375 C 54.566406 -85.003906 60.21875 -86.953125 67.625 -86.953125 Z M 67.625 -86.953125 "/></g></g></g></svg>
